<?xml version="1.0" encoding="UTF-8" standalone="no"?>
<!-- Created with Inkscape (http://www.inkscape.org/) -->
<svg xmlns:dc="http://purl.org/dc/elements/1.1/" xmlns:cc="http://creativecommons.org/ns#" xmlns:rdf="http://www.w3.org/1999/02/22-rdf-syntax-ns#" xmlns:svg="http://www.w3.org/2000/svg" xmlns="http://www.w3.org/2000/svg" version="1.1" width="576" height="368" id="svg2">
  <metadata id="metadata472">
    <rdf:RDF>
      <cc:Work rdf:about="">
        <dc:format>image/svg+xml</dc:format>
        <dc:type rdf:resource="http://purl.org/dc/dcmitype/StillImage"/>
        <dc:title/>
      </cc:Work>
    </rdf:RDF>
  </metadata>
  <defs id="defs470">
    <marker refX="0" refY="0" orient="auto" id="Arrow2Mend" style="overflow:visible">
      <path d="M 8.7185878,4.0337352 -2.2072895,0.01601326 8.7185884,-4.0017078 c -1.7454984,2.3720609 -1.7354408,5.6174519 -6e-7,8.035443 z" transform="scale(-0.6,-0.6)" id="path4028" style="font-size:12px;fill-rule:evenodd;stroke-width:0.625;stroke-linejoin:round"/>
    </marker>
  </defs>
  <path d="m 16,16 0,16 0,16 0,16 0,16 0,16 0,16 0,16 16,0 16,0 16,0 16,0 16,0 16,0 16,0 0,-16 0,-16 0,-16 0,-16 0,-16 0,-16 0,-16 -16,0 -16,0 -16,0 -16,0 -16,0 -16,0 -16,0 z m 128,0 0,16 0,16 16,0 0,-16 0,-16 -16,0 z m -112,16 16,0 16,0 16,0 16,0 16,0 0,16 0,16 0,16 0,16 0,16 -16,0 -16,0 -16,0 -16,0 -16,0 0,-16 0,-16 0,-16 0,-16 0,-16 z m 16,16 0,16 0,16 0,16 16,0 16,0 16,0 0,-16 0,-16 0,-16 -16,0 -16,0 -16,0 z m 96,32 0,16 0,16 0,16 0,16 0,16 16,0 0,-16 0,-16 0,-16 0,-16 0,-16 -16,0 z m -128,64 0,16 16,0 16,0 16,0 0,-16 -16,0 -16,0 -16,0 z m 80,0 0,16 16,0 16,0 0,-16 -16,0 -16,0 z m 16,32 0,16 16,0 0,-16 -16,0 z m 0,32 0,16 16,0 0,-16 -16,0 z m 32,16 0,16 16,0 0,-16 -16,0 z m -128,16 0,16 0,16 0,16 0,16 0,16 0,16 0,16 16,0 16,0 16,0 16,0 16,0 16,0 16,0 0,-16 0,-16 0,-16 0,-16 0,-16 0,-16 0,-16 -16,0 -16,0 -16,0 -16,0 -16,0 -16,0 -16,0 z m 16,16 16,0 16,0 16,0 16,0 16,0 0,16 0,16 0,16 0,16 0,16 -16,0 -16,0 -16,0 -16,0 -16,0 0,-16 0,-16 0,-16 0,-16 0,-16 z m 112,0 0,16 16,0 0,-16 -16,0 z m -96,16 0,16 0,16 0,16 16,0 16,0 16,0 0,-16 0,-16 0,-16 -16,0 -16,0 -16,0 z m 96,32 0,16 0,16 0,16 16,0 0,-16 0,-16 0,-16 -16,0 z" id="rect4" style="fill:#000000;stroke:none"/>
  <rect width="35" height="24" x="12" y="140" id="rect3213" style="fill:none;stroke:#ff0000;stroke-opacity:1"/>
  <rect width="0" height="0" x="0" y="0" id="rect3217" style="fill:#000000;fill-opacity:1;stroke:none"/>
  <rect width="47" height="24" x="48" y="140" id="rect3956" style="fill:none;stroke:#00df00;stroke-width:1;stroke-linecap:butt;stroke-linejoin:miter;stroke-miterlimit:4;stroke-opacity:1;stroke-dasharray:none"/>
  <rect width="16" height="24" x="96" y="140" id="rect3958" style="fill:none;stroke:#0000ff;stroke-width:1;stroke-linecap:butt;stroke-linejoin:miter;stroke-miterlimit:4;stroke-opacity:1;stroke-dasharray:none"/>
  <path d="m 128,164 0,-24 12,0 0,-12 24,0 0,36 z" id="path3960" style="color:#000000;fill:none;stroke:#0000ff;stroke-width:1;stroke-linecap:butt;stroke-linejoin:miter;stroke-miterlimit:4;stroke-opacity:1;stroke-dasharray:none;stroke-dashoffset:0;marker:none;visibility:visible;display:inline;overflow:visible;enable-background:accumulate"/>
  <rect width="24" height="100" x="140" y="12" id="rect3962" style="fill:none;stroke:#0000ff;stroke-width:1;stroke-linecap:butt;stroke-linejoin:miter;stroke-miterlimit:4;stroke-opacity:1;stroke-dasharray:none"/>
  <rect width="24" height="31" x="140" y="240" id="rect3964" style="fill:none;stroke:#0000ff;stroke-width:1;stroke-linecap:butt;stroke-linejoin:miter;stroke-miterlimit:4;stroke-opacity:1;stroke-dasharray:none"/>
  <rect width="24" height="48" x="140" y="272" id="rect3966" style="fill:none;stroke:#00df00;stroke-width:1;stroke-linecap:butt;stroke-linejoin:miter;stroke-miterlimit:4;stroke-opacity:1;stroke-dasharray:none"/>
  <rect width="24" height="35" x="140" y="321" id="rect3968" style="fill:none;stroke:#ff0000;stroke-width:1;stroke-linecap:butt;stroke-linejoin:miter;stroke-miterlimit:4;stroke-opacity:1;stroke-dasharray:none"/>
  <text x="199.29289" y="322.82843" id="text3970" xml:space="preserve" style="font-size:16px;font-style:normal;font-variant:normal;font-weight:normal;font-stretch:normal;text-align:start;line-height:100%;letter-spacing:0px;word-spacing:0px;writing-mode:lr-tb;text-anchor:start;fill:#000000;fill-opacity:1;stroke:none;font-family:Arial"><tspan x="199.29289" y="322.82843" id="tspan3986">Error</tspan><tspan x="199.29289" y="338.82843" id="tspan3990">correction</tspan><tspan x="199.29289" y="354.82843" id="tspan3992">level</tspan></text>
  <text x="200" y="280" id="text3974" xml:space="preserve" style="font-size:16px;font-style:normal;font-variant:normal;font-weight:normal;font-stretch:normal;text-align:start;line-height:125%;letter-spacing:0px;word-spacing:0px;writing-mode:lr-tb;text-anchor:start;fill:#000000;fill-opacity:1;stroke:none;font-family:Arial"><tspan x="200" y="280" id="tspan3976">Mask pattern</tspan></text>
  <text x="200" y="209.89949" id="text3978" xml:space="preserve" style="font-size:16px;font-style:normal;font-variant:normal;font-weight:normal;font-stretch:normal;text-align:start;line-height:100%;letter-spacing:0px;word-spacing:0px;writing-mode:lr-tb;text-anchor:start;fill:#000000;fill-opacity:1;stroke:none;font-family:Arial"><tspan x="200" y="209.89949" id="tspan3980">Format</tspan><tspan x="200" y="225.89949" id="tspan3982">error</tspan><tspan x="200" y="241.89949" id="tspan3984">correction</tspan></text>
  <path d="m 192,336 -24,0" id="path6756" style="color:#000000;fill:none;stroke:#000000;stroke-width:1;stroke-linecap:butt;stroke-linejoin:miter;stroke-miterlimit:4;stroke-opacity:1;stroke-dasharray:none;stroke-dashoffset:0;marker:none;marker-end:url(#Arrow2Mend);visibility:visible;display:inline;overflow:visible;enable-background:accumulate"/>
  <path d="m 192,280 -24,8" id="path6758" style="color:#000000;fill:none;stroke:#000000;stroke-width:1;stroke-linecap:butt;stroke-linejoin:miter;stroke-miterlimit:4;stroke-opacity:1;stroke-dasharray:none;stroke-dashoffset:0;marker:none;marker-end:url(#Arrow2Mend);visibility:visible;display:inline;overflow:visible;enable-background:accumulate"/>
  <path d="m 192,232 -24,16" id="path6760" style="color:#000000;fill:none;stroke:#000000;stroke-width:1;stroke-linecap:butt;stroke-linejoin:miter;stroke-miterlimit:4;stroke-opacity:1;stroke-dasharray:none;stroke-dashoffset:0;marker:none;marker-end:url(#Arrow2Mend);visibility:visible;display:inline;overflow:visible;enable-background:accumulate"/>
  <text x="260.11121" y="54.609558" id="text7538" xml:space="preserve" style="font-size:16px;font-style:normal;font-variant:normal;font-weight:normal;font-stretch:normal;text-align:center;line-height:125%;letter-spacing:0px;word-spacing:0px;writing-mode:lr-tb;text-anchor:middle;fill:#000000;fill-opacity:1;stroke:none;font-family:Arial"><tspan x="260.11121" y="54.609558" id="tspan7540">L</tspan></text>
  <text x="260.11121" y="78.609558" id="text7542" xml:space="preserve" style="font-size:16px;font-style:normal;font-variant:normal;font-weight:normal;font-stretch:normal;text-align:center;line-height:125%;letter-spacing:0px;word-spacing:0px;writing-mode:lr-tb;text-anchor:middle;fill:#000000;fill-opacity:1;stroke:none;font-family:Arial"><tspan x="260.11121" y="78.609558" id="tspan7544">M</tspan></text>
  <text x="260.11121" y="102.60956" id="text7546" xml:space="preserve" style="font-size:16px;font-style:normal;font-variant:normal;font-weight:normal;font-stretch:normal;text-align:center;line-height:125%;letter-spacing:0px;word-spacing:0px;writing-mode:lr-tb;text-anchor:middle;fill:#000000;fill-opacity:1;stroke:none;font-family:Arial"><tspan x="260.11121" y="102.60956" id="tspan7548">Q</tspan></text>
  <text x="260.11121" y="126.60956" id="text7550" xml:space="preserve" style="font-size:16px;font-style:normal;font-variant:normal;font-weight:normal;font-stretch:normal;text-align:center;line-height:125%;letter-spacing:0px;word-spacing:0px;writing-mode:lr-tb;text-anchor:middle;fill:#000000;fill-opacity:1;stroke:none;font-family:Arial"><tspan x="260.11121" y="126.60956" id="tspan7552">H</tspan></text>
  <rect width="32" height="16" x="204" y="40" id="rect7554" style="fill:#000000;fill-opacity:1;stroke:#000000;stroke-width:1;stroke-linecap:butt;stroke-linejoin:miter;stroke-miterlimit:4;stroke-opacity:1;stroke-dasharray:none"/>
  <rect width="32" height="16" x="204" y="64" id="rect7556" style="fill:none;stroke:#000000;stroke-width:1;stroke-linecap:butt;stroke-linejoin:miter;stroke-miterlimit:4;stroke-opacity:1;stroke-dasharray:none"/>
  <rect width="32" height="16" x="204" y="88" id="rect7558" style="fill:none;stroke:#000000;stroke-width:1;stroke-linecap:butt;stroke-linejoin:miter;stroke-miterlimit:4;stroke-opacity:1;stroke-dasharray:none"/>
  <rect width="32" height="16" x="204" y="112" id="rect7560" style="fill:none;stroke:#000000;stroke-width:1;stroke-linecap:butt;stroke-linejoin:miter;stroke-miterlimit:4;stroke-opacity:1;stroke-dasharray:none"/>
  <text x="200.11122" y="28.609558" id="text7562" xml:space="preserve" style="font-size:16px;font-style:normal;font-variant:normal;font-weight:normal;font-stretch:normal;text-align:start;line-height:125%;letter-spacing:0px;word-spacing:0px;writing-mode:lr-tb;text-anchor:start;fill:#000000;fill-opacity:1;stroke:none;font-family:Arial"><tspan x="200.11122" y="28.609558" id="tspan7564">EC Levels</tspan></text>
  <rect width="16" height="16" x="204" y="64" id="rect7566" style="fill:#000000;fill-opacity:1;stroke:none"/>
  <rect width="16" height="16" x="220" y="88" id="rect7568" style="fill:#000000;fill-opacity:1;stroke:none"/>
  <path d="m 490,73 0,10 10,0 0,-10 -10,0 z m 10,10 0,10 10,0 0,-10 -10,0 z m 10,0 10,0 0,-10 -10,0 0,10 z m 10,0 0,10 10,0 0,-10 -10,0 z m 10,0 10,0 0,-10 -10,0 0,10 z m 10,0 0,10 10,0 0,-10 -10,0 z m 0,10 -10,0 0,10 10,0 0,-10 z m 0,10 0,10 10,0 0,-10 -10,0 z m 0,10 -10,0 0,10 10,0 0,-10 z m 0,10 0,10 10,0 0,-10 -10,0 z m -10,0 -10,0 0,10 10,0 0,-10 z m -10,0 0,-10 -10,0 0,10 10,0 z m -10,0 -10,0 0,10 10,0 0,-10 z m -10,0 0,-10 -10,0 0,10 10,0 z m 0,-10 10,0 0,-10 -10,0 0,10 z m 0,-10 0,-10 -10,0 0,10 10,0 z m 10,0 10,0 0,-10 -10,0 0,10 z m 10,0 0,10 10,0 0,-10 -10,0 z" id="rect6960" style="fill:#010101;stroke:none"/>
  <rect width="60" height="60" x="490" y="73" id="rect7242" style="fill:none;stroke:#000000;stroke-opacity:1"/>
  <path d="m 310,183 0,10 10,0 10,0 10,0 10,0 10,0 10,0 0,-10 -10,0 -10,0 -10,0 -10,0 -10,0 -10,0 z m 0,20 0,10 10,0 10,0 10,0 10,0 10,0 10,0 0,-10 -10,0 -10,0 -10,0 -10,0 -10,0 -10,0 z m 0,20 0,10 10,0 10,0 10,0 10,0 10,0 10,0 0,-10 -10,0 -10,0 -10,0 -10,0 -10,0 -10,0 z" id="rect6966" style="fill:#010101;stroke:none"/>
  <rect width="60" height="60" x="310" y="183" id="rect7242-9" style="fill:none;stroke:#000000;stroke-opacity:1"/>
  <path d="m 310,73 0,10.000001 0,10.000002 0,9.999997 0,10 0,10 0,10 10,0 0,-10 0,-10 0,-10 0,-9.999997 0,-10.000002 L 320,73 310,73 z m 30,0 0,10.000001 0,10.000002 0,9.999997 0,10 0,10 0,10 10,0 0,-10 0,-10 0,-10 0,-9.999997 0,-10.000002 L 350,73 340,73 z" id="rect6978" style="fill:#010101;stroke:none"/>
  <path d="m 400,73 0,10 10,0 0,-10 -10,0 z m 30,0 0,10 10,0 0,-10 -10,0 z m 0,10 -10,0 0,10 10,0 0,-10 z m -10,10 -10,0 0,10 10,0 0,-10 z m -10,10 -10,0 0,10 10,0 0,-10 z m 40,-20 0,10 10,0 0,-10 -10,0 z m 0,10 -10,0 0,10 10,0 0,-10 z m -10,10 -10,0 0,10 10,0 0,-10 z m -10,10 -10,0 0,10 10,0 0,-10 z m -10,10 -10,0 0,10 10,0 0,-10 z m 30,-10 0,10 10,0 0,-10 -10,0 z m 0,10 -10,0 0,10 10,0 0,-10 z" id="rect6982" style="fill:#010101;stroke:none"/>
  <rect width="60" height="60" x="310" y="73" id="rect7242-4" style="fill:none;stroke:#000000;stroke-opacity:1"/>
  <rect width="60" height="60" x="400" y="73" id="rect7242-8" style="fill:none;stroke:#000000;stroke-opacity:1"/>
  <path d="m 310,293 0,10 0,10 10,0 10,0 10,0 0,-10 0,-10 -10,0 -10,0 -10,0 z m 30,20 0,10 0,10 10,0 10,0 10,0 0,-10 0,-10 -10,0 -10,0 -10,0 z m 0,20 -10,0 -10,0 -10,0 0,10 0,10 10,0 10,0 10,0 0,-10 0,-10 z" id="rect7080" style="fill:#010101;stroke:none"/>
  <path d="m 400,293 0,10 0,10 0,10 0,10 0,10 0,10 10,0 0,-10 0,-10 0,-10 0,-10 0,-10 10,0 10,0 10,0 10,0 10,0 0,-10 -10,0 -10,0 -10,0 -10,0 -10,0 -10,0 z m 30,20 0,10 10,0 0,-10 -10,0 z m 10,10 0,10 10,0 0,-10 -10,0 z m 0,10 -10,0 0,10 10,0 0,-10 z m -10,0 0,-10 -10,0 0,10 10,0 z" id="rect7086" style="fill:#010101;stroke:none"/>
  <path d="m 400,183 0,10 0,10 0,10 0,10 0,10 0,10 10,0 0,-10 0,-10 0,-10 10,0 0,-10 10,0 0,-10 10,0 10,0 10,0 0,-10 -10,0 -10,0 -10,0 -10,0 -10,0 -10,0 z m 30,20 0,10 10,0 0,10 10,0 0,-10 0,-10 -10,0 -10,0 z m 20,20 0,10 -10,0 0,10 10,0 10,0 0,-10 0,-10 -10,0 z m -10,10 0,-10 -10,0 0,-10 -10,0 0,10 0,10 10,0 10,0 z" id="rect7098" style="fill:#010101;stroke:none"/>
  <path d="m 490,183 0,10 10,0 0,-10 -10,0 z m 20,0 0,10 10,0 0,-10 -10,0 z m 10,10 0,10 10,0 0,10 10,0 0,10 10,0 0,-10 0,-10 0,-10 -10,0 0,-10 -10,0 0,10 -10,0 z m 10,20 -10,0 0,10 10,0 0,-10 z m -10,10 -10,0 0,-10 -10,0 0,10 -10,0 0,10 10,0 0,10 10,0 10,0 10,0 0,-10 -10,0 0,-10 z m -20,-10 0,-10 -10,0 0,10 10,0 z" id="rect7110" style="fill:#010101;stroke:none"/>
  <rect width="60" height="60" x="310" y="293" id="rect7242-3" style="fill:none;stroke:#000000;stroke-opacity:1"/>
  <rect width="60" height="60" x="400" y="293" id="rect7242-5" style="fill:none;stroke:#000000;stroke-opacity:1"/>
  <rect width="60" height="60" x="400" y="183" id="rect7242-0" style="fill:none;stroke:#000000;stroke-opacity:1"/>
  <rect width="60" height="60" x="490" y="183" id="rect7242-06" style="fill:none;stroke:#000000;stroke-opacity:1"/>
  <text x="384" y="28" id="text7622" xml:space="preserve" style="font-size:16px;font-style:normal;font-variant:normal;font-weight:normal;font-stretch:normal;text-align:start;line-height:125%;letter-spacing:0px;word-spacing:0px;writing-mode:lr-tb;text-anchor:start;fill:#000000;fill-opacity:1;stroke:none;font-family:Arial"><tspan x="384" y="28" id="tspan7624">Mask Patterns</tspan></text>
  <rect width="48" height="16" x="406" y="260" id="rect7626" style="fill:none;stroke:#000000;stroke-opacity:1"/>
  <rect width="0" height="0" x="0" y="0" id="rect7628" style="fill:none;stroke:#000000;stroke-width:1;stroke-linecap:butt;stroke-linejoin:miter;stroke-miterlimit:4;stroke-opacity:1;stroke-dasharray:none"/>
  <rect width="48" height="16" x="316" y="260" id="rect3148" style="fill:none;stroke:#000000;stroke-opacity:1"/>
  <rect width="48" height="16" x="496" y="150" id="rect3960" style="fill:none;stroke:#000000;stroke-width:1;stroke-linecap:butt;stroke-linejoin:miter;stroke-miterlimit:4;stroke-opacity:1;stroke-dasharray:none"/>
  <rect width="48" height="16" x="406" y="150" id="rect3963" style="fill:none;stroke:#000000;stroke-width:1;stroke-linecap:butt;stroke-linejoin:miter;stroke-miterlimit:4;stroke-opacity:1;stroke-dasharray:none"/>
  <rect width="48" height="16" x="316" y="150" id="rect3965" style="fill:none;stroke:#000000;stroke-width:1;stroke-linecap:butt;stroke-linejoin:miter;stroke-miterlimit:4;stroke-opacity:1;stroke-dasharray:none"/>
  <rect width="48" height="16" x="496" y="40" id="rect3967" style="fill:none;stroke:#000000;stroke-width:1;stroke-linecap:butt;stroke-linejoin:miter;stroke-miterlimit:4;stroke-opacity:1;stroke-dasharray:none"/>
  <rect width="48" height="16" x="406" y="40" id="rect3969" style="fill:none;stroke:#000000;stroke-width:1;stroke-linecap:butt;stroke-linejoin:miter;stroke-miterlimit:4;stroke-opacity:1;stroke-dasharray:none"/>
  <rect width="48" height="16" x="316" y="40" id="rect3971" style="fill:#000000;fill-opacity:1;stroke:#000000;stroke-width:1;stroke-linecap:butt;stroke-linejoin:miter;stroke-miterlimit:4;stroke-opacity:1;stroke-dasharray:none"/>
  <rect width="16" height="16" x="348" y="260" id="rect3973" style="fill:#000000;fill-opacity:1;stroke:none"/>
  <rect width="16" height="16" x="512" y="150" id="rect3975" style="fill:#000000;fill-opacity:1;stroke:none"/>
  <rect width="32" height="16" x="422" y="150" id="rect3977" style="fill:#000000;fill-opacity:1;stroke:none"/>
  <rect width="16" height="16" x="316" y="150" id="rect3979" style="fill:#000000;fill-opacity:1;stroke:none"/>
  <rect width="16" height="16" x="496" y="40" id="rect3981" style="fill:#000000;fill-opacity:1;stroke:none"/>
  <rect width="16" height="16" x="528" y="40" id="rect3983" style="fill:#000000;fill-opacity:1;stroke:none"/>
  <rect width="32" height="16" x="406" y="40" id="rect3985" style="fill:#000000;fill-opacity:1;stroke:none"/>
  <text x="520" y="53" id="text8074" xml:space="preserve" style="font-size:10px;font-style:normal;font-variant:normal;font-weight:normal;font-stretch:normal;text-align:center;line-height:125%;letter-spacing:0px;word-spacing:0px;writing-mode:lr-tb;text-anchor:middle;fill:#000000;fill-opacity:1;stroke:none;font-family:Arial"><tspan x="520" y="68" id="tspan8078" style="font-size:10px;font-style:normal;font-variant:normal;font-weight:normal;font-stretch:normal;text-align:center;line-height:125%;writing-mode:lr-tb;text-anchor:middle;font-family:Arial">(i + j)%2 = 0</tspan></text>
  <text x="430" y="53" id="text8092" xml:space="preserve" style="font-size:10px;font-style:normal;font-variant:normal;font-weight:normal;font-stretch:normal;text-align:center;line-height:125%;letter-spacing:0px;word-spacing:0px;writing-mode:lr-tb;text-anchor:middle;fill:#000000;fill-opacity:1;stroke:none;font-family:Arial"><tspan x="430" y="68" id="tspan8096" style="font-size:10px;font-style:normal;font-variant:normal;font-weight:normal;font-stretch:normal;text-align:center;line-height:125%;writing-mode:lr-tb;text-anchor:middle;font-family:Arial">(i + j)%3 = 0</tspan></text>
  <text x="340" y="53" id="text8086" xml:space="preserve" style="font-size:10px;font-style:normal;font-variant:normal;font-weight:normal;font-stretch:normal;text-align:center;line-height:125%;letter-spacing:0px;word-spacing:0px;writing-mode:lr-tb;text-anchor:middle;fill:#000000;fill-opacity:1;stroke:none;font-family:Arial"><tspan x="340" y="68" id="tspan8090" style="font-size:10px;font-style:normal;font-variant:normal;font-weight:normal;font-stretch:normal;text-align:center;line-height:125%;writing-mode:lr-tb;text-anchor:middle;font-family:Arial">j % 3 = 0</tspan></text>
  <text x="340" y="273" id="text8098" xml:space="preserve" style="font-size:10px;font-style:normal;font-variant:normal;font-weight:normal;font-stretch:normal;text-align:center;line-height:125%;letter-spacing:0px;word-spacing:0px;writing-mode:lr-tb;text-anchor:middle;fill:#000000;fill-opacity:1;stroke:none;font-family:Arial"><tspan x="340" y="288" id="tspan8102" style="font-size:10px;font-style:normal;font-variant:normal;font-weight:normal;font-stretch:normal;text-align:center;line-height:125%;writing-mode:lr-tb;text-anchor:middle;font-family:Arial">(i/2 + j/3)%2=0</tspan></text>
  <text x="430" y="273" id="text8104" xml:space="preserve" style="font-size:10px;font-style:normal;font-variant:normal;font-weight:normal;font-stretch:normal;text-align:center;line-height:125%;letter-spacing:0px;word-spacing:0px;writing-mode:lr-tb;text-anchor:middle;fill:#000000;fill-opacity:1;stroke:none;font-family:Arial"><tspan x="430" y="288" id="tspan8108" style="font-size:10px;font-style:normal;font-variant:normal;font-weight:normal;font-stretch:normal;text-align:center;line-height:125%;writing-mode:lr-tb;text-anchor:middle;font-family:Arial">(i*j)%2+(i*j)%3=0</tspan></text>
  <text x="340" y="163" id="text8080" xml:space="preserve" style="font-size:10px;font-style:normal;font-variant:normal;font-weight:normal;font-stretch:normal;text-align:center;line-height:125%;letter-spacing:0px;word-spacing:0px;writing-mode:lr-tb;text-anchor:middle;fill:#000000;fill-opacity:1;stroke:none;font-family:Arial"><tspan x="340" y="178" id="tspan8084" style="font-size:10px;font-style:normal;font-variant:normal;font-weight:normal;font-stretch:normal;text-align:center;line-height:125%;writing-mode:lr-tb;text-anchor:middle;font-family:Arial">i % 2 = 0</tspan></text>
  <text x="430" y="163" id="text8110" xml:space="preserve" style="font-size:10px;font-style:normal;font-variant:normal;font-weight:normal;font-stretch:normal;text-align:center;line-height:125%;letter-spacing:0px;word-spacing:0px;writing-mode:lr-tb;text-anchor:middle;fill:#000000;fill-opacity:1;stroke:none;font-family:Arial"><tspan x="430" y="178" id="tspan8114" style="font-size:10px;font-style:normal;font-variant:normal;font-weight:normal;font-stretch:normal;text-align:center;line-height:125%;writing-mode:lr-tb;text-anchor:middle;font-family:Arial">((i*j)%3+i*j)%2=0</tspan></text>
  <text x="520" y="163" id="text8116" xml:space="preserve" style="font-size:10px;font-style:normal;font-variant:normal;font-weight:normal;font-stretch:normal;text-align:center;line-height:125%;letter-spacing:0px;word-spacing:0px;writing-mode:lr-tb;text-anchor:middle;fill:#000000;fill-opacity:1;stroke:none;font-family:Arial"><tspan x="520" y="178" id="tspan8120" style="font-size:10px;font-style:normal;font-variant:normal;font-weight:normal;font-stretch:normal;text-align:center;line-height:125%;writing-mode:lr-tb;text-anchor:middle;font-family:Arial">((i*j)%3+i+j)%2=0</tspan></text>
</svg>