<svg id="shield" data-name="shield" xmlns="http://www.w3.org/2000/svg" viewBox="0 0 118.35 145.54"> <defs> <linearGradient id="Gold39" x1="0" x2="0" y1="0" y2="1"> <stop offset="0%" stop-color="#A4D65E"></stop> <stop offset="39%" stop-color="#A4D65E"></stop> <stop offset="39.1%" stop-color="white"></stop> <stop offset="100%" stop-color="white"></stop> </linearGradient> <linearGradient id="Bish" x1="0" x2="0" y1="0" y2="1" gradientTransform="rotate(22)"> <stop offset="0%" stop-color="#A4D65E"></stop> <stop offset="35%" stop-color="#A4D65E"></stop> <stop offset="45%" stop-color="transparent"></stop> <stop offset="100%" stop-color="transparent"></stop> </linearGradient> <clipPath id="quillclip"> <rect width="180" height="80" x="0" y="60"></rect> </clipPath><style>.cls-1{fill:#fff}.cls-2{fill:none;stroke:#fff;stroke-miterlimit:10;stroke-width:8.75px}.cls-3{fill:#104735}</style></defs><title></title> <path id="shield_outline" transform="translate(-8,-8) scale(0.22)" d="M 322.00,39.14 C 322.00,39.14 346.00,39.14 346.00,39.14 346.00,39.14 363.00,40.00 363.00,40.00 363.00,40.00 377.00,40.00 377.00,40.00 377.00,40.00 398.00,41.00 398.00,41.00 398.00,41.00 418.00,42.00 418.00,42.00 418.00,42.00 428.00,42.91 428.00,42.91 428.00,42.91 452.00,44.09 452.00,44.09 452.00,44.09 500.00,48.04 500.00,48.04 500.00,48.04 517.00,49.83 517.00,49.83 517.00,49.83 554.00,53.58 554.00,53.58 557.07,54.00 568.34,54.52 569.98,56.60 571.23,58.19 571.00,62.01 571.00,64.00 571.00,64.00 571.00,174.00 571.00,174.00 571.00,174.00 570.00,189.00 570.00,189.00 570.00,189.00 570.00,240.00 570.00,240.00 570.00,240.00 569.00,257.00 569.00,257.00 569.00,257.00 569.00,308.00 569.00,308.00 569.00,308.00 568.00,325.00 568.00,325.00 568.00,325.00 568.00,363.00 568.00,363.00 568.00,363.00 567.09,375.00 567.09,375.00 565.47,398.52 561.12,421.58 553.65,444.00 530.05,514.79 477.48,576.21 420.00,622.20 392.13,644.49 368.62,660.29 338.00,678.40 338.00,678.40 316.00,690.58 316.00,690.58 313.23,692.14 305.83,696.35 303.00,696.63 299.55,696.95 295.06,694.28 292.00,692.75 292.00,692.75 270.00,680.72 270.00,680.72 239.15,663.15 210.21,641.82 183.00,619.08 125.86,571.31 76.11,507.48 55.43,435.00 50.16,416.53 45.03,388.08 45.00,369.00 45.00,369.00 45.00,342.00 45.00,342.00 45.00,342.00 44.00,325.00 44.00,325.00 44.00,325.00 44.00,272.00 44.00,272.00 44.00,272.00 43.00,257.00 43.00,257.00 43.00,257.00 43.00,207.00 43.00,207.00 43.00,207.00 42.00,190.00 42.00,190.00 42.00,190.00 42.00,140.00 42.00,140.00 42.00,140.00 41.00,123.00 41.00,123.00 41.00,123.00 41.00,64.00 41.00,64.00 41.00,61.70 40.59,57.74 42.57,56.17 44.27,54.83 55.21,54.13 58.00,53.84 58.00,53.84 94.00,50.03 94.00,50.03 94.00,50.03 126.00,47.17 126.00,47.17 126.00,47.17 174.00,43.91 174.00,43.91 174.00,43.91 206.00,42.00 206.00,42.00 206.00,42.00 216.00,41.04 216.00,41.04 216.00,41.04 228.00,41.04 228.00,41.04 228.00,41.04 243.00,40.00 243.00,40.00 243.00,40.00 266.00,39.14 266.00,39.14 266.00,39.14 322.00,39.14 322.00,39.14 Z" class=""></path> <path id="sunrays" class="cls-1" d="M61.47,6.24A519.08,519.08,0,0,0,6,9.73V24.17l.71,47.54C6.36,110.05,44,133.87,56.09,140.5l3.82,2,3.63-2c12.45-6.64,51.32-30.45,51.32-68.72l.71-48.89V9.73a476.82,476.82,0,0,0-54.1-3.49" transform="translate(-1.6 -1.87)"></path> <path id="whitespace" clip-path="url(#quillclip)" class="cls-1" d="M61.47,6.24A519.08,519.08,0,0,0,6,9.73V24.17l.71,47.54C6.36,110.05,44,133.87,56.09,140.5l3.82,2,3.63-2c12.45-6.64,51.32-30.45,51.32-68.72l.71-48.89V9.73a476.82,476.82,0,0,0-54.1-3.49" transform="translate(-1.6 -1.87)"></path> <path id="quillandhammer" class="cls-3" d="M83.38,87.44,78.07,81.7l3.12-2.94L77.86,75.2l-2,1.86.29,2.88L69.09,72.4l-2.67-.09-5.9,5.24-.07,2.51,5.68,6.16-.29.27-1.08,1-6.88,6.61L37.74,72.37,36.27,70.9l-.33,10.5A5.42,5.42,0,0,0,36.81,85l.24.31a7.47,7.47,0,0,0,3.29,2.4A23.52,23.52,0,0,0,47,89.1l1.59.08-1.4.77-.21.1a8.8,8.8,0,0,1-3.58.56A22.56,22.56,0,0,1,39.05,90c.27.3.61.65,1,1l.27.26A10.09,10.09,0,0,0,46,93.89c2.13.4,6.12,1,6.15,1l1.38.19-1.11.59-.12.06a8.2,8.2,0,0,1-3.85.66,18.69,18.69,0,0,1-4-.57l.75.82.29.31a9.64,9.64,0,0,0,4.43,2.3c.62.18,1.25.33,1.87.47,2.21.48,4.18.69,4.2.69l1.44.15-.85.46-.42.23a7.87,7.87,0,0,1-4.13.67,15,15,0,0,1-2.25-.32h0l-10,9.37,3.34,3.55,10.21-9.58a20.15,20.15,0,0,0,8.13,2.26l4.41.15,7.48,7.77h3.92L61.12,97.62,68.21,91l1-.93.24-.23.19-.17,5.29,5.69,2.68.08,5.89-5.23.07-2.51Z" transform="translate(-1.6 -1.87)"></path> <path id="shieldshape" class="cls-3" d="M109.54,57.59h0l-.08-.06-.28-.17h0c-3.87-2.66-11.43-9.87-11.84-9.87-.08,0-26.85,9.74-26.85,9.74a3.37,3.37,0,0,1-.65.09L68.52,57l-5-1.15-.7-.16-.71-.17-.23,0-.63-.15-.62-.14-1.83-.42-.51-.12-.87-.2L57,54.35l-1.15-.27L55.35,54l-.77-.18-.47-.1-.29-.07-.83.43-.43.23-.67.35-.43.22-.88.46-.43.23-.68.36-.44.23-1.21.63L47.3,57l-.94.5H43l-3.68,0c-11.68,0-25.21.74-27.51.89l.48-12.73,27.5,10.09.15-.45.17-.45.33-.75.21-.43.22-.42L12.53,38.82l.12-3.18c3.36-.35,7.89-.81,13.23-1.25L43.09,50.16l.33-.35.35-.33.61-.54.38-.3.38-.28L33.74,33.8c2.69-.18,5.52-.35,8.44-.5l6.28,13.22.44-.16.45-.16.79-.23.46-.12.47-.09-3-12.71L50.35,33c1.87,0,3.75-.1,5.64-.13L54.85,45.5l.47,0,.48.05c.27,0,.54.08.81.12l.47.1.46.1L61.43,32.8h0c2.67,0,5.33,0,8,.09L61.07,47.27l.42.24.41.24.68.46c.13.09.26.18.38.28l.35.27,0,0,0,0h0l.25-.33,13-15.33c5.15.21,10.08.5,14.6.82L66,51.51c.09.13.19.25.28.39s.18.26.26.39.15.23.22.34l.21.36c.08.14.16.28.23.42s.15.28.22.42l35.5-18.91c2,.18,3.78.37,5.36.53l.62.07.68,22.06ZM79,58.37l1.29-.45c3.82-1.37,14.6-5.31,14.6-5.31h0l-9.57,6.23h0L79,58.37h0Zm30.28,17.41A51.45,51.45,0,0,1,108.13,83a58.88,58.88,0,0,1-4.76,13.31A62.57,62.57,0,0,1,91.5,112.65c-16.86,16.88-31.75,20.78-31.75,20.78s-13.91-4.36-30.15-20.59a64.57,64.57,0,0,1-12-16.32A58.65,58.65,0,0,1,13.1,84.63,53.8,53.8,0,0,1,11.79,78a33.23,33.23,0,0,1-.33-5.21l.33-.18A58.36,58.36,0,0,1,23,68.53a115.81,115.81,0,0,1,16.88-3.19,160.41,160.41,0,0,1,18.76-1q5.11,0,9.75.23C92.75,65.7,107,71,109.11,71.81l.27.11a30.18,30.18,0,0,1-.13,3.86M85.18,7.2l-.8,0c-5.83-.33-12.1-.59-18.49-.67h-1c-1.14,0-2.29,0-3.44,0h-3.1c-5.53,0-11,.24-16.3.49l-.48,0-.48,0c-2,.1-3.91.21-5.79.33l-.49,0-.5,0c-16,1-28.17,2.53-28.17,2.53V24.31l.17,11.36v1.07l.09,5.73v1l.42,28.2a59,59,0,0,0,6.22,26.63c11.13,22.68,34.11,37,43,41.92l3.81,2,3.62-2c9.27-4.94,33.25-19.45,44.77-42.38a57.58,57.58,0,0,0,6.37-26.1l.52-35.51L115.38,23V9.92s-13-1.7-30.2-2.72" transform="translate(-1.6 -1.87)"></path> <path id="bishoppeak" class="cls-3" transform="translate(-4.75,-4) scale(0.208)" d="M 352.00,294.00 C 352.00,291.96 351.74,288.37 352.99,286.70 354.21,285.07 358.07,283.93 360.00,283.19 360.00,283.19 379.00,276.31 379.00,276.31 379.00,276.31 456.00,248.33 456.00,248.33 456.00,248.33 474.00,241.81 474.00,241.81 476.78,240.75 481.05,238.87 484.00,239.69 486.62,240.41 490.88,244.29 493.00,246.15 493.00,246.15 508.00,259.28 508.00,259.28 508.00,259.28 529.00,277.20 529.00,277.20 541.26,287.06 541.98,285.06 542.00,295.00 542.00,295.00 542.00,356.00 542.00,356.00 542.00,356.00 507.00,344.88 507.00,344.88 471.48,335.51 435.54,328.74 399.00,324.84 399.00,324.84 352.00,321.00 352.00,321.00 352.00,321.00 352.00,294.00 352.00,294.00 Z M 425.00,279.31 C 425.00,279.31 394.00,291.00 394.00,291.00 394.00,291.00 425.00,293.02 425.00,293.02 425.00,293.02 439.00,284.95 439.00,284.95 439.00,284.95 471.00,263.00 471.00,263.00 471.00,263.00 425.00,279.31 425.00,279.31 Z"></path> <path class="l_b_d cls-1" d="M12.6,18.4l1.81-.21v6.52l3.17-.35v1.52c-1.66.18-3.32.36-5,.56Z" transform="translate(-1.6 -1.87)"></path> <path class="l_b_d cls-1" d="M19.62,17.63l5-.47v1.52l-3.21.3v1.61l2.73-.25v1.52l-2.73.26V24l3.33-.31v1.52c-1.71.15-3.43.32-5.15.49Z" transform="translate(-1.6 -1.87)"></path> <path class="l_b_d cls-1" d="M27.82,21.6l3.86-.29v1.41L27.82,23V21.6m.86-4.78,2.17-.16q1.26,3.91,2.52,7.86l-1.92.13-1.05-4c-.22-.79-.44-1.72-.65-2.55H29.7c-.2.86-.41,1.82-.63,2.64-.36,1.38-.71,2.77-1.06,4.15l-1.85.15,2.52-8.24" transform="translate(-1.6 -1.87)"></path> <path class="l_b_d cls-1" d="M37.51,20.89l1.26-1.23,2.57,4.4-2,.1-1.79-3.27m.19-1c.95-.05,1.47-.48,1.47-1.28s-.52-1-1.47-1l-.93.05V20l.93-.06M35,16.38l2.89-.18c1.71-.09,3.11.43,3.11,2.34s-1.4,2.71-3.11,2.81l-1.07.06V24.3L35,24.41Z" transform="translate(-1.6 -1.87)"></path> <path class="l_b_d cls-1" d="M42.91,16l1.86-.08,2.1,3.92.8,1.74h0c-.09-.85-.24-2-.24-2.91V15.78l1.74-.06v8l-1.87.06-2.1-3.94c-.26-.57-.53-1.14-.79-1.72h-.05c.08.89.23,2,.23,2.9v2.86L42.91,24V16" transform="translate(-1.6 -1.87)"></path> <path class="l_b_d cls-1" d="M57.66,22.21c1,0,1.5-.36,1.5-1.1s-.5-1-1.5-1h-1v2.08h1m-.17-3.42c.89,0,1.28-.38,1.28-1S58.35,17,57.51,17h-.87V18.8h.85M54.82,15.6l2.76,0c1.67,0,3,.45,3,2a1.88,1.88,0,0,1-1.06,1.74v.05a1.83,1.83,0,0,1,1.45,1.89c0,1.63-1.38,2.36-3.13,2.38-1,0-2,0-3,0Z" transform="translate(-1.6 -1.87)"></path> <path class="l_b_d cls-1" d="M64.17,20.74c-.81-1.73-1.62-3.45-2.42-5.18h1.94l.72,1.85c.22.61.43,1.16.66,1.79h.05c.22-.62.46-1.17.68-1.77s.47-1.23.71-1.84l1.9,0Q67.21,18.2,66,20.76v2.87l-1.82,0Z" transform="translate(-1.6 -1.87)"></path> <path class="l_b_d cls-1" d="M74.89,22.37c1.37.05,2.29-.58,2.29-2.5s-.92-2.56-2.29-2.61h-.34v5.11h.34m-2.16-6.64L75,15.8c2.46.09,4,1.39,4,4.15s-1.59,4-3.94,3.89l-2.38-.07Z" transform="translate(-1.6 -1.87)"></path> <path class="l_b_d cls-1" d="M86.07,20.32c0-1.61-.69-2.61-1.79-2.67s-1.78.85-1.78,2.46.69,2.67,1.78,2.74,1.79-.92,1.79-2.53M80.63,20c0-2.62,1.49-4.06,3.65-3.94s3.66,1.74,3.66,4.36-1.49,4.1-3.66,4S80.63,22.65,80.63,20" transform="translate(-1.6 -1.87)"></path> <path class="l_b_d cls-1" d="M89.82,16.58l1.82.14v8l-1.82-.13Z" transform="translate(-1.6 -1.87)"></path> <path class="l_b_d cls-1" d="M94.35,16.93l1.86.16q1,2.09,2.09,4.18c.27.61.53,1.23.8,1.84h.05c-.09-.85-.24-2-.24-2.94V17.33l1.73.16v8l-1.86-.18q-1-2.1-2.09-4.19l-.79-1.83h-.05c.08.89.23,2,.23,2.93v2.85L94.35,25Z" transform="translate(-1.6 -1.87)"></path> <path class="l_b_d cls-1" d="M102.5,21.74c0-2.66,1.77-4,3.91-3.79a3.93,3.93,0,0,1,2.53,1.33l-1,1.06a2.28,2.28,0,0,0-1.51-.81c-1.23-.14-2.11.74-2.11,2.35s.75,2.69,2.25,2.86a1.33,1.33,0,0,0,.85-.15V23.21c-.44-.06-.88-.1-1.33-.15V21.57l2.94.34v3.7a3.48,3.48,0,0,1-2.64.67,4.27,4.27,0,0,1-3.93-4.54" transform="translate(-1.6 -1.87)"></path> </svg>